<svg xmlns="http://www.w3.org/2000/svg" viewBox="0 0 220 220" role="img" aria-labelledby="title desc">
  <title id="title">Logotipo alternativo</title>
  <desc id="desc">Logotipo alternativo para CRM Imobiliario.</desc>
  <defs>
    <linearGradient id="g" x1="0" y1="0" x2="1" y2="1">
      <stop offset="0%" stop-color="#0b7285" />
      <stop offset="100%" stop-color="#155e75" />
    </linearGradient>
  </defs>
  <rect x="8" y="8" width="204" height="204" rx="40" fill="url(#g)" />
  <path d="M68 72c11-13 25-20 43-20 16 0 30 5 42 15l-11 16c-9-8-20-12-32-12-11 0-20 4-27 11-7 8-11 18-11 30 0 12 4 22 11 30 7 7 17 11 30 11 11 0 22-4 32-12l11 16c-12 10-26 16-43 16-18 0-33-7-45-20-12-13-18-29-18-46 0-17 6-32 18-45z" fill="#ffffff" />
</svg>
